<svg width="12" height="12" viewBox="0 0 12 12" fill="none" xmlns="http://www.w3.org/2000/svg">
<path d="M3.89442 3.99838L8.10442 3.99838C8.27062 3.99814 8.4335 4.04497 8.57419 4.13346C8.71489 4.22194 8.82765 4.34847 8.89942 4.49838C8.98343 4.67625 9.01579 4.87414 8.99281 5.06951C8.96982 5.26488 8.89242 5.44986 8.76942 5.60338L6.66442 8.15338C6.58181 8.24869 6.47968 8.32514 6.36494 8.37753C6.2502 8.42992 6.12555 8.45703 5.99942 8.45703C5.87328 8.45703 5.74863 8.42992 5.63389 8.37753C5.51916 8.32514 5.41702 8.24869 5.33442 8.15338L3.22941 5.60338C3.10641 5.44986 3.02901 5.26488 3.00602 5.06951C2.98304 4.87414 3.0154 4.67625 3.09942 4.49838C3.17119 4.34847 3.28394 4.22194 3.42464 4.13346C3.56533 4.04497 3.72821 3.99814 3.89442 3.99838Z" fill="white"/>
</svg>
