<svg width="9" height="9" viewBox="0 0 9 9" fill="none" xmlns="http://www.w3.org/2000/svg">
<path d="M7.87303 4.33169L5.46052 3.66067C5.43172 3.65236 5.4055 3.63689 5.38431 3.61569C5.36312 3.5945 5.34764 3.56828 5.33933 3.53948L4.66831 1.12697C4.65787 1.09039 4.63579 1.05821 4.60542 1.0353C4.57505 1.01239 4.53804 1 4.5 1C4.46196 1 4.42495 1.01239 4.39458 1.0353C4.36421 1.05821 4.34213 1.09039 4.33169 1.12697L3.66067 3.53948C3.65236 3.56828 3.63689 3.5945 3.61569 3.61569C3.5945 3.63689 3.56828 3.65236 3.53948 3.66067L1.12697 4.33169C1.09039 4.34213 1.05821 4.36421 1.0353 4.39458C1.01239 4.42495 1 4.46196 1 4.5C1 4.53804 1.01239 4.57505 1.0353 4.60542C1.05821 4.63579 1.09039 4.65787 1.12697 4.66831L3.53948 5.33933C3.56828 5.34764 3.5945 5.36312 3.61569 5.38431C3.63689 5.4055 3.65236 5.43172 3.66067 5.46052L4.33169 7.87303C4.34213 7.90961 4.36421 7.94179 4.39458 7.9647C4.42495 7.98761 4.46196 8 4.5 8C4.53804 8 4.57505 7.98761 4.60542 7.9647C4.63579 7.94179 4.65787 7.90961 4.66831 7.87303L5.33933 5.46052C5.34764 5.43172 5.36312 5.4055 5.38431 5.38431C5.4055 5.36312 5.43172 5.34764 5.46052 5.33933L7.87303 4.66831C7.90961 4.65787 7.94179 4.63579 7.9647 4.60542C7.98761 4.57505 8 4.53804 8 4.5C8 4.46196 7.98761 4.42495 7.9647 4.39458C7.94179 4.36421 7.90961 4.34213 7.87303 4.33169Z" fill="white" stroke="#FCD34D" stroke-width="0.5" stroke-linecap="round" stroke-linejoin="round"/>
</svg>
