<svg width="25" height="25" viewBox="0 0 25 25" fill="none" xmlns="http://www.w3.org/2000/svg">
<path d="M12.595 16.7567L8.21472 12.3764C8.04154 12.2037 7.9208 11.9856 7.86648 11.7471C7.81217 11.5087 7.82649 11.2597 7.90779 11.0291C8.00544 10.7566 8.17767 10.517 8.40485 10.3377C8.63203 10.1583 8.90503 10.0464 9.19273 10.0146L14.036 9.55163C14.2211 9.53841 14.4069 9.56514 14.5808 9.63C14.7547 9.69487 14.9126 9.79636 15.0438 9.92759C15.175 10.0588 15.2765 10.2167 15.3414 10.3906C15.4063 10.5645 15.433 10.7503 15.4198 10.9354L14.9568 15.7787C14.925 16.0664 14.8131 16.3394 14.6337 16.5665C14.4544 16.7937 14.2148 16.966 13.9423 17.0636C13.7117 17.1449 13.4627 17.1592 13.2243 17.1049C12.9858 17.0506 12.7676 16.9299 12.595 16.7567Z" fill="white"/>
</svg>
