<svg width="60" height="60" viewBox="0 0 60 60" fill="none" xmlns="http://www.w3.org/2000/svg">
<circle cx="30" cy="30" r="29.85" transform="matrix(1 0 0 -1 0 60)" stroke="white" stroke-width="0.3"/>
<path d="M25.2695 21.854C25.2022 21.8539 25.1357 21.8674 25.0738 21.8937C25.0119 21.92 24.956 21.9586 24.9095 22.007L17.5505 29.6381C17.4605 29.7309 17.4102 29.8552 17.4102 29.9846C17.4102 30.1139 17.4605 30.2382 17.5505 30.331L24.9415 37.993C24.9863 38.0432 25.0407 38.0837 25.1015 38.1123C25.1623 38.1409 25.2283 38.1569 25.2955 38.1594C25.3626 38.162 25.4296 38.1509 25.4924 38.127C25.5552 38.103 25.6125 38.0666 25.6609 38.02C25.7094 37.9734 25.7479 37.9175 25.7742 37.8557C25.8006 37.7939 25.8142 37.7274 25.8142 37.6602C25.8143 37.5929 25.8008 37.5264 25.7745 37.4645C25.7483 37.4027 25.7098 37.3467 25.6615 37.3L18.6055 29.9851L25.6295 22.701C25.6976 22.6304 25.7434 22.5413 25.7612 22.4448C25.779 22.3483 25.768 22.2488 25.7296 22.1585C25.6913 22.0682 25.6272 21.9912 25.5453 21.937C25.4635 21.8829 25.3676 21.854 25.2695 21.854Z" fill="white"/>
<path d="M42.0902 29.484L17.9102 29.484C17.7775 29.484 17.6504 29.5367 17.5566 29.6305C17.4628 29.7242 17.4102 29.8514 17.4102 29.984C17.4102 30.1166 17.4628 30.2438 17.5566 30.3376C17.6504 30.4313 17.7775 30.484 17.9102 30.484L42.0902 30.484C42.2228 30.484 42.3499 30.4313 42.4437 30.3376C42.5375 30.2438 42.5902 30.1166 42.5902 29.984C42.5902 29.8514 42.5375 29.7242 42.4437 29.6305C42.3499 29.5367 42.2228 29.484 42.0902 29.484Z" fill="white"/>
</svg>
