<svg width="60" height="60" viewBox="0 0 60 60" fill="none" xmlns="http://www.w3.org/2000/svg">
<circle cx="30" cy="30" r="29.85" transform="rotate(-180 30 30)" stroke="white" stroke-width="0.3"/>
<path d="M34.7305 21.854C34.7978 21.8539 34.8643 21.8674 34.9262 21.8937C34.9881 21.92 35.044 21.9586 35.0905 22.007L42.4495 29.6381C42.5395 29.7309 42.5898 29.8552 42.5898 29.9846C42.5898 30.1139 42.5395 30.2382 42.4495 30.331L35.0585 37.993C35.0137 38.0432 34.9593 38.0837 34.8985 38.1123C34.8377 38.1409 34.7717 38.1569 34.7045 38.1594C34.6374 38.162 34.5704 38.1509 34.5076 38.127C34.4448 38.103 34.3875 38.0666 34.3391 38.02C34.2906 37.9734 34.2521 37.9175 34.2258 37.8557C34.1994 37.7939 34.1858 37.7274 34.1858 37.6602C34.1857 37.5929 34.1992 37.5264 34.2255 37.4645C34.2517 37.4027 34.2902 37.3467 34.3385 37.3L41.3945 29.9851L34.3705 22.701C34.3024 22.6304 34.2566 22.5413 34.2388 22.4448C34.221 22.3483 34.232 22.2488 34.2704 22.1585C34.3087 22.0682 34.3728 21.9912 34.4547 21.937C34.5365 21.8829 34.6324 21.854 34.7305 21.854Z" fill="white"/>
<path d="M17.9098 29.484L42.0898 29.484C42.2225 29.484 42.3496 29.5367 42.4434 29.6305C42.5372 29.7242 42.5898 29.8514 42.5898 29.984C42.5898 30.1166 42.5372 30.2438 42.4434 30.3376C42.3496 30.4313 42.2225 30.484 42.0898 30.484L17.9098 30.484C17.7772 30.484 17.6501 30.4313 17.5563 30.3376C17.4625 30.2438 17.4098 30.1166 17.4098 29.984C17.4098 29.8514 17.4625 29.7242 17.5563 29.6305C17.6501 29.5367 17.7772 29.484 17.9098 29.484Z" fill="white"/>
</svg>
