<svg width="24" height="24" viewBox="0 0 24 24" fill="none" xmlns="http://www.w3.org/2000/svg">
<path d="M12.0004 1.99951C17.3023 1.99951 21.6004 6.47666 21.6004 11.9995C21.6004 17.5224 17.3023 21.9995 12.0004 21.9995C6.69845 21.9995 2.40039 17.5224 2.40039 11.9995C2.40039 6.47666 6.69845 1.99951 12.0004 1.99951ZM12.0004 3.49951C7.49375 3.49951 3.84039 7.30509 3.84039 11.9995C3.84039 16.6939 7.49375 20.4995 12.0004 20.4995C16.507 20.4995 20.1604 16.6939 20.1604 11.9995C20.1604 7.30509 16.507 3.49951 12.0004 3.49951ZM10.8004 13.4389L15.0913 8.96918C15.3725 8.67629 15.8283 8.67629 16.1095 8.96918C16.3651 9.23545 16.3884 9.65211 16.1792 9.94572L16.1095 10.0298L11.3095 15.0298C11.0539 15.2961 10.6539 15.3203 10.372 15.1025L10.2913 15.0298L7.89127 12.5298C7.6101 12.2369 7.6101 11.7621 7.89127 11.4692C8.14689 11.2029 8.54689 11.1787 8.82875 11.3966L8.90951 11.4692L10.8004 13.4389Z" fill="#00C693"/>
</svg>
