<svg width="554" height="88" viewBox="0 0 554 88" fill="none" xmlns="http://www.w3.org/2000/svg">
<path d="M-14 87C-3.55 85.0936 -7.11644 84.3193 9.75 83.3605C38.6124 81.7197 25.1895 65.539 54.4 65.5096C76.0906 65.4877 75.0011 53.8405 96.2 52.1647C118.33 50.4153 129.656 61.1774 151.3 58.7505C167.858 56.8938 166.441 48.5231 183.6 47.6586C197.494 46.9586 200.39 29.6733 207.553 20.7004C241.584 -21.9274 240.846 18.1105 270.488 16.7128C302.212 15.2169 271.173 32.9122 328 34.8337C352.079 35.6478 356.022 45.4869 384.05 45.7522C402.192 45.9239 401.657 57.9582 419.675 58.7505C445.332 59.8786 435.198 68.0987 461 68.6291C481.425 69.049 483.81 52.5152 498.05 52.1647C517.202 51.6933 508.911 57.9323 527.975 58.7505C540.289 59.2789 556 46.7921 556 46.7921" stroke="url(#paint0_linear_4348_31620)" stroke-width="2" stroke-linecap="round"/>
<defs>
<linearGradient id="paint0_linear_4348_31620" x1="271" y1="3.25296" x2="271" y2="87" gradientUnits="userSpaceOnUse">
<stop stop-color="#64D6B9"/>
<stop offset="1" stop-color="#00A77C"/>
</linearGradient>
</defs>
</svg>
