<svg width="60" height="40" viewBox="0 0 60 40" fill="none" xmlns="http://www.w3.org/2000/svg">
<path d="M18.72 12.99C18.4525 11.83 17.7125 10.775 16.615 10.315C16.1 10.1 15.5825 10 15.0825 10C13.36 10 11.865 11.1875 11.475 12.8675L7.7875 28.4975C7.6075 29.265 8.1875 30 8.9775 30C9.5425 30 10.0325 29.6125 10.165 29.0625L11.1375 25H18.925L19.86 29.0525C19.9875 29.6075 20.4825 30 21.05 30H21.08C21.865 30 22.445 29.27 22.27 28.505L18.715 12.99H18.72ZM11.7375 22.5L13.91 13.4325C14.0375 12.885 14.52 12.5 15.0825 12.5C15.265 12.5 15.455 12.54 15.6475 12.6225C15.925 12.7375 16.18 13.115 16.28 13.55L18.3475 22.5H11.7375ZM48.75 0H11.25C5.045 0 0 5.0475 0 11.25V28.75C0 34.9525 5.0475 40 11.25 40H48.75C54.9525 40 60 34.9525 60 28.75V11.25C60 5.0475 54.9525 0 48.75 0ZM2.5 28.75V11.25C2.5 6.425 6.425 2.5 11.25 2.5H28.75V37.5H11.25C6.425 37.5 2.5 33.575 2.5 28.75ZM57.5 28.75C57.5 33.575 53.575 37.5 48.75 37.5H31.25V2.5H48.75C53.575 2.5 57.5 6.425 57.5 11.25V28.75ZM55 13.7275V13.7725C55 14.45 54.45 15 53.7725 15H52.4075C52.14 17.2925 51.115 22.26 47.195 25.8525C48.9475 26.7375 51.13 27.34 53.84 27.4725C54.49 27.505 55 28.045 55 28.6975V28.7425C55 29.445 54.4125 30.005 53.71 29.97C50.0375 29.7925 47.1975 28.85 45 27.505C42.8025 28.85 39.9625 29.7925 36.29 29.97C35.59 30.005 35 29.445 35 28.7425V28.6975C35 28.0475 35.51 27.505 36.16 27.4725C38.8725 27.3375 41.0525 26.735 42.8075 25.8525C41.4575 24.615 40.45 23.215 39.7 21.8175C39.26 20.995 39.8475 20 40.78 20C41.2325 20 41.6425 20.25 41.86 20.6475C42.5875 21.9825 43.5975 23.3125 45.0025 24.445C48.6875 21.4825 49.6575 17.1325 49.9125 15.0025H36.23C35.5525 15.0025 35.0025 14.4525 35.0025 13.775V13.73C35.0025 13.0525 35.5525 12.5025 36.23 12.5025H43.7525V11.23C43.7525 10.5525 44.3025 10.0025 44.98 10.0025H45.025C45.7025 10.0025 46.2525 10.5525 46.2525 11.23V12.5025H53.775C54.4525 12.5025 55.0025 13.0525 55.0025 13.73L55 13.7275Z" fill="white"/>
</svg>
